<svg id="Layer_1" data-name="Layer 1" xmlns="http://www.w3.org/2000/svg" viewBox="0 0 395.71 352.42"><defs><style>.cls-1{fill:#000000;}</style></defs><path class="cls-1" d="M490,325.94c3.62-1.81,8.12-2.71,13.84-2.71v-3.6h-39.4v3.6c4.52,0,7.52.6,9.32,1.51a6,6,0,0,1,2.72,5.41c0,2.11-.9,4.81-2.12,8.42l-18.94,49.31L390.49,219.79h-6L332.76,354.2,331,349.75,306,264l-25.08,85.71-1.68,4.15L227.52,219.79h-6L156.85,388.18l-18.94-49.61c-1.5-3.61-2.4-6.31-2.4-8.42a6.06,6.06,0,0,1,2.7-5.41c1.8-.91,5.12-1.51,9.32-1.51v-3.6H108.15v3.6c5.7,0,10.52.9,13.82,2.71a24.84,24.84,0,0,1,8.72,10.22L153.85,396l-23.16,59.84A24.77,24.77,0,0,1,122,466.06c-3.3,1.81-8.12,2.71-13.82,2.71v3.61h39.38v-3.61c-4.2,0-7.52-.3-9.32-1.51a5.56,5.56,0,0,1-2.7-5.11c0-2.41.9-5.11,2.4-8.71l18.94-49.62L221.5,572.21h6L279.24,438.1l1.68,4.25,25,71.25,26.81-75.8,51.71,134.41h6l64.94-168.09,18.94,49.32c1.22,3.6,2.12,6.3,2.12,8.71a5.54,5.54,0,0,1-2.72,5.11c-1.8,1.21-4.8,1.51-9.32,1.51v3.61h39.4v-3.61c-5.72,0-10.22-.9-13.84-2.71-3.3-2.1-6-5.41-8.42-10.22L458.45,396l23.14-59.84C484,331.35,486.71,328.05,490,325.94ZM211.27,529.81,160.75,399H261.5ZM160.45,393.3l50.82-131.11L261.8,393.3ZM306,423.36,295.46,396,306,368.64,316.52,396Zm94.71,106.45L350.5,399H451.23ZM350.2,393.3l50.51-131.11L451.53,393.3Z" transform="translate(-108.15 -219.79)"/></svg>