<svg id="Layer_1" data-name="Layer 1" xmlns="http://www.w3.org/2000/svg" viewBox="0 0 451 113.86"><defs><style>.cls-1{fill:#fff;}.cls-2{fill:#fffdfd;}</style></defs><path class="cls-1" d="M543.58,388.17c.3,0,.45.22.45.67s-.15.68-.45.68c-2.26,0-4.56-.08-6.93-.23s-4.64-.22-6.81-.22q-3.72,0-6.48.22c-1.84.15-3.88.23-6.14.23-.3,0-.45-.23-.45-.68s.15-.67.45-.67q5.07,0,6.09-1.81t-1.69-7.09l-23.54-47.86,4.62-7.55-22.3,50.23q-2.92,6.87-.17,10.47t9.4,3.61c.38,0,.57.22.57.67s-.19.68-.57.68q-3.37,0-6.19-.23t-7.09-.22q-4.29,0-6.82.22t-6.25.23c-.3,0-.45-.23-.45-.68s.15-.67.45-.67a10.55,10.55,0,0,0,5.24-1.24,13.47,13.47,0,0,0,4.33-4.56,66.17,66.17,0,0,0,4.73-9.29l24.22-54.62c.15-.23.48-.34,1-.34s.83.11.9.34l27.59,55.63a76.67,76.67,0,0,0,4.62,8.5,15.63,15.63,0,0,0,3.83,4.34A6.67,6.67,0,0,0,543.58,388.17Zm-59.91-26.24,1.46-2.82h31.53l.79,2.82Z" transform="translate(-458 -315.87)"/><path class="cls-1" d="M559.34,321.5a15.27,15.27,0,0,0-11.2,4.28q-4.33,4.28-6.82,12.61c0,.23-.2.32-.61.28s-.62-.13-.62-.28c.15-1.05.29-2.49.45-4.33s.31-3.85.5-6,.34-4.3.45-6.36.17-3.74.17-5c0-.38.21-.57.62-.57s.62.19.62.57a1.71,1.71,0,0,0,1.18,1.63,9.62,9.62,0,0,0,2.65.68,22.43,22.43,0,0,0,2.48.16q9.67.35,22.63.34,8,0,12.67-.17t9.07-.17a27.71,27.71,0,0,0,6.13-.5,3.38,3.38,0,0,0,2.65-2.31c.07-.3.3-.45.68-.45s.56.15.56.45c-.08,1.2-.19,2.83-.34,4.9s-.26,4.24-.34,6.53-.15,4.39-.22,6.31-.11,3.36-.11,4.33c0,.15-.21.23-.62.23s-.66-.08-.74-.23q-1.23-8.89-5.4-12.89t-11.15-4a14.64,14.64,0,0,0-4.62.56,3.39,3.39,0,0,0-2.14,2.09,13.15,13.15,0,0,0-.56,4.33V380.4a13,13,0,0,0,.73,5,4,4,0,0,0,2.82,2.25,26.07,26.07,0,0,0,6.36.57c.23,0,.34.22.34.67s-.11.68-.34.68q-3,0-6.93-.11t-8.5-.12q-4.4,0-8.22.12c-2.55.07-4.92.11-7.09.11-.15,0-.23-.23-.23-.68s.08-.67.23-.67a26.86,26.86,0,0,0,6.42-.57,4,4,0,0,0,2.87-2.25,13,13,0,0,0,.73-5V328.26A13.2,13.2,0,0,0,566,324a3.22,3.22,0,0,0-2.08-2A14.64,14.64,0,0,0,559.34,321.5Z" transform="translate(-458 -315.87)"/><path class="cls-1" d="M661.37,389.52H612.5c-.23,0-.34-.23-.34-.68s.11-.67.34-.67a19.66,19.66,0,0,0,5.51-.57,3.53,3.53,0,0,0,2.42-2.25,15,15,0,0,0,.62-5V328.26a14.44,14.44,0,0,0-.62-4.9,3.71,3.71,0,0,0-2.42-2.25,17.94,17.94,0,0,0-5.51-.62c-.23,0-.34-.23-.34-.68s.11-.68.34-.68h46.84c.75,0,1.13.34,1.13,1l.22,14.64c0,.15-.19.24-.56.28a.78.78,0,0,1-.79-.28q-1.23-6.42-5.18-9.57t-10.36-3.16h-4.62a12.91,12.91,0,0,0-4.44.62,4,4,0,0,0-2.31,2,8.8,8.8,0,0,0-.68,3.77V380a10.44,10.44,0,0,0,.62,3.88,3.82,3.82,0,0,0,2,2.14,9.5,9.5,0,0,0,3.83.62h5.52q7.65,0,12.39-3.66t6.75-10.87c.08-.22.32-.3.74-.22s.61.19.61.33c-.3,2.11-.56,4.62-.78,7.55s-.34,5.63-.34,8.11A1.5,1.5,0,0,1,661.37,389.52Zm-6.31-25.45a8.61,8.61,0,0,0-3.15-7.21c-2.1-1.65-5.26-2.48-9.46-2.48H626.68v-2.93h15.88c4.21,0,7.32-.71,9.35-2.14a7.09,7.09,0,0,0,3-6.19c0-.22.21-.34.62-.34s.62.12.62.34c0,2.4,0,4.28-.06,5.63s0,2.74,0,4.17c0,1.8,0,3.58.17,5.35s.16,3.7.16,5.8c0,.15-.22.22-.67.22S655.06,364.22,655.06,364.07Z" transform="translate(-458 -315.87)"/><path class="cls-1" d="M692.22,328.37V380a12.31,12.31,0,0,0,.57,4.27,3,3,0,0,0,2.14,1.92,17.86,17.86,0,0,0,4.61.45h6.76a20.62,20.62,0,0,0,13.51-4.51,21.42,21.42,0,0,0,7.32-11.93c.08-.23.3-.3.68-.23s.56.23.56.45c-.22,2.33-.45,5.13-.67,8.39s-.34,6.29-.34,9.07a1.5,1.5,0,0,1-1.69,1.69H673c-.15,0-.23-.23-.23-.68s.08-.67.23-.67a19.79,19.79,0,0,0,5.46-.57,3.56,3.56,0,0,0,2.48-2.25,15.24,15.24,0,0,0,.62-5V328.26a14.7,14.7,0,0,0-.62-4.9,3.74,3.74,0,0,0-2.48-2.25,18.05,18.05,0,0,0-5.46-.62c-.15,0-.23-.23-.23-.68s.08-.68.23-.68q2.7,0,6.3.17c2.41.12,4.92.17,7.55.17s5.35-.05,7.71-.17,4.45-.17,6.25-.17c.23,0,.34.23.34.68s-.11.68-.34.68a18.05,18.05,0,0,0-5.46.62,3.74,3.74,0,0,0-2.48,2.3A15.27,15.27,0,0,0,692.22,328.37Z" transform="translate(-458 -315.87)"/><path class="cls-1" d="M754.72,380.4a15.24,15.24,0,0,0,.62,5,3.53,3.53,0,0,0,2.42,2.25,19.69,19.69,0,0,0,5.52.57c.23,0,.34.22.34.67s-.11.68-.34.68q-2.92,0-6.42-.11c-2.32-.08-4.88-.12-7.65-.12s-5.13,0-7.49.12-4.53.11-6.48.11c-.22,0-.34-.23-.34-.68s.12-.67.34-.67a20.48,20.48,0,0,0,5.52-.57,3.55,3.55,0,0,0,2.53-2.25,15,15,0,0,0,.62-5V328.26a14.44,14.44,0,0,0-.62-4.9,3.72,3.72,0,0,0-2.47-2.25,18.59,18.59,0,0,0-5.58-.62c-.22,0-.34-.23-.34-.68s.12-.68.34-.68q2.93,0,6.48.17c2.36.12,4.86.17,7.49.17s5.34-.05,7.71-.17,4.48-.17,6.36-.17c.23,0,.34.23.34.68s-.11.68-.34.68a16.89,16.89,0,0,0-5.46.67,3.88,3.88,0,0,0-2.48,2.37,15.2,15.2,0,0,0-.62,5Z" transform="translate(-458 -315.87)"/><path class="cls-1" d="M822.06,389.52H773.19c-.22,0-.34-.23-.34-.68s.12-.67.34-.67a19.69,19.69,0,0,0,5.52-.57,3.53,3.53,0,0,0,2.42-2.25,15.24,15.24,0,0,0,.62-5V328.26a14.7,14.7,0,0,0-.62-4.9,3.71,3.71,0,0,0-2.42-2.25,18,18,0,0,0-5.52-.62c-.22,0-.34-.23-.34-.68s.12-.68.34-.68H820c.75,0,1.12.34,1.12,1l.23,14.64c0,.15-.19.24-.56.28a.78.78,0,0,1-.79-.28q-1.24-6.42-5.18-9.57t-10.36-3.16h-4.62a13,13,0,0,0-4.45.62,4,4,0,0,0-2.31,2,8.81,8.81,0,0,0-.67,3.77V380a10.24,10.24,0,0,0,.62,3.88,3.82,3.82,0,0,0,2,2.14,9.47,9.47,0,0,0,3.83.62h5.51q7.67,0,12.39-3.66t6.76-10.87c.07-.22.32-.3.73-.22s.62.19.62.33c-.3,2.11-.56,4.62-.79,7.55s-.34,5.63-.34,8.11A1.5,1.5,0,0,1,822.06,389.52Zm-6.3-25.45a8.61,8.61,0,0,0-3.15-7.21q-3.17-2.48-9.46-2.48H787.38v-2.93h15.88q6.3,0,9.35-2.14a7.11,7.11,0,0,0,3-6.19c0-.22.2-.34.61-.34s.62.12.62.34c0,2.4,0,4.28,0,5.63s-.06,2.74-.06,4.17c0,1.8.06,3.58.17,5.35s.17,3.7.17,5.8c0,.15-.23.22-.68.22S815.76,364.22,815.76,364.07Z" transform="translate(-458 -315.87)"/><path class="cls-1" d="M865.08,318.8q9.79,0,15.15,3.88a12.46,12.46,0,0,1,5.35,10.64,19.14,19.14,0,0,1-3.66,11.49,24.81,24.81,0,0,1-9.46,7.88A28.12,28.12,0,0,1,860,355.51c-.9,0-1.87,0-2.92-.06s-2-.09-2.82-.17V380.4a16.79,16.79,0,0,0,.56,5,3.41,3.41,0,0,0,2.43,2.25,19.69,19.69,0,0,0,5.46.57c.22,0,.33.22.33.67s-.11.68-.33.68q-2.82,0-6.31-.11t-7.66-.12q-3.94,0-7.54.12c-2.41.07-4.54.11-6.42.11-.23,0-.34-.23-.34-.68s.11-.67.34-.67a19.69,19.69,0,0,0,5.52-.57,3.72,3.72,0,0,0,2.48-2.25,14,14,0,0,0,.67-5V328.26a14.7,14.7,0,0,0-.62-4.9,3.71,3.71,0,0,0-2.42-2.25,18,18,0,0,0-5.52-.62c-.15,0-.22-.23-.22-.68s.07-.68.22-.68q2.82,0,6.36.17c2.37.12,4.86.17,7.49.17q3.62,0,8.11-.34T865.08,318.8Zm9.35,18.47q0-6.54-1.52-10.08a9.2,9.2,0,0,0-4.22-4.9,14,14,0,0,0-6.31-1.35q-4.39,0-6.25,1.63t-1.86,5.91v23.76c1.05.15,2.18.27,3.38.34s2.25.11,3.15.11q7.55,0,10.59-3.77T874.43,337.27Zm16.22,52.25q-1.7,0-5.64-4.28a117.74,117.74,0,0,1-9.51-12.33q-5.58-8.06-12.45-19.2l9-2.71q9.13,13.63,15.6,21.79t11.49,11.77q5,3.62,9.63,3.61c.14,0,.22.22.22.67s-.08.68-.22.68H890.65Z" transform="translate(-458 -315.87)"/><path class="cls-1" d="M558.26,421.28s-.07-.07-.07-.21,0-.21.07-.21a8.64,8.64,0,0,0,2-.17,1.26,1.26,0,0,0,.89-.69,4.06,4.06,0,0,0,.22-1.53v-16a3.85,3.85,0,0,0-.22-1.5,1.26,1.26,0,0,0-.89-.69,7.44,7.44,0,0,0-2-.19s-.07-.07-.07-.21,0-.21.07-.21H572a.27.27,0,0,1,.31.31l.07,4.19c0,.07-.06.11-.19.11s-.19,0-.19-.11a4,4,0,0,0-.94-2.82,3.16,3.16,0,0,0-2.45-1h-2.39a4.76,4.76,0,0,0-2.44.41,2.12,2.12,0,0,0-.57,1.77v15.85a3.32,3.32,0,0,0,.29,1.58,1.71,1.71,0,0,0,1.23.74,13.8,13.8,0,0,0,2.8.21c.07,0,.11.07.11.21s0,.21-.11.21c-.74,0-1.54,0-2.4,0s-1.81,0-2.82,0c-.74,0-1.46,0-2.15,0S558.81,421.28,558.26,421.28Zm11.94-7.72a2.69,2.69,0,0,0-.74-2.18,4.2,4.2,0,0,0-2.65-.63h-4.5v-.65H567a4.2,4.2,0,0,0,2.51-.56,2.19,2.19,0,0,0,.71-1.83s.07-.07.21-.07.2,0,.2.07c0,.67,0,1.19,0,1.55s0,.77,0,1.18,0,1,0,1.51,0,1,0,1.61c0,0-.07.07-.21.07S570.2,413.6,570.2,413.56Z" transform="translate(-458 -315.87)"/><path class="cls-1" d="M580.9,418.47a4.31,4.31,0,0,0,.21,1.53,1.21,1.21,0,0,0,.88.69,8.9,8.9,0,0,0,2,.17s.07.07.07.21,0,.21-.07.21c-.55,0-1.16,0-1.83,0s-1.41,0-2.22,0-1.48,0-2.16,0-1.3,0-1.85,0c-.07,0-.11-.07-.11-.21s0-.21.11-.21a9,9,0,0,0,2-.17,1.26,1.26,0,0,0,.9-.69,4.06,4.06,0,0,0,.22-1.53v-16a3.85,3.85,0,0,0-.22-1.5,1.26,1.26,0,0,0-.9-.69,7.72,7.72,0,0,0-2-.19c-.07,0-.11-.07-.11-.21s0-.21.11-.21c.55,0,1.17,0,1.85.05s1.4.05,2.16.05,1.55,0,2.23-.05,1.29-.05,1.82-.05c0,0,.07.07.07.21s0,.21-.07.21a7,7,0,0,0-2,.2,1.32,1.32,0,0,0-.88.73,4,4,0,0,0-.23,1.52Z" transform="translate(-458 -315.87)"/><path class="cls-1" d="M589.76,417.68V400.44l.76.07v17.17a4,4,0,0,0,.59,2.47,2.51,2.51,0,0,0,2,.71c.07,0,.11.07.11.21s0,.21-.11.21c-.43,0-.89,0-1.36,0s-1,0-1.58,0-1.08,0-1.59,0-1,0-1.45,0c0,0-.07-.07-.07-.21s0-.21.07-.21a2.45,2.45,0,0,0,2.06-.71A4.3,4.3,0,0,0,589.76,417.68Zm17.42,4s-.06.07-.18.09a.54.54,0,0,1-.24,0l-15.65-19.25a7.76,7.76,0,0,0-2.09-1.92,3.6,3.6,0,0,0-1.75-.5c-.07,0-.1-.07-.1-.21s0-.21.1-.21l1.21,0c.42,0,.79,0,1.11,0a9,9,0,0,0,.92,0l.64,0a.62.62,0,0,1,.62.4,8.77,8.77,0,0,0,1,1.4L606.9,419Zm0-18.38v18.38l-.77-1.08v-17.3a4.26,4.26,0,0,0-.55-2.5,2.4,2.4,0,0,0-2-.72s-.07-.07-.07-.21,0-.21.07-.21c.46,0,.93,0,1.4.05s1,.05,1.58.05,1.06,0,1.59-.05,1-.05,1.46-.05c.07,0,.1.07.1.21s0,.21-.1.21a2.62,2.62,0,0,0-2.1.72A4,4,0,0,0,607.18,403.28Z" transform="translate(-458 -315.87)"/><path class="cls-1" d="M626.6,421.28H612.3s-.07-.07-.07-.21,0-.21.07-.21a8.64,8.64,0,0,0,2-.17,1.25,1.25,0,0,0,.88-.69,4,4,0,0,0,.23-1.53v-16a3.82,3.82,0,0,0-.23-1.5,1.25,1.25,0,0,0-.88-.69,7.44,7.44,0,0,0-2-.19s-.07-.07-.07-.21,0-.21.07-.21H626a.27.27,0,0,1,.31.31l.07,4.19c0,.07-.06.11-.19.11s-.19,0-.19-.11a4,4,0,0,0-.94-2.82,3.16,3.16,0,0,0-2.45-1h-2.39a8.3,8.3,0,0,0-1.93.17,1.24,1.24,0,0,0-.86.68,3.79,3.79,0,0,0-.23,1.5v15.68a3.6,3.6,0,0,0,.23,1.46,1.27,1.27,0,0,0,.86.66,8.3,8.3,0,0,0,1.93.17h3.18a3,3,0,0,0,2.39-1.21,6.1,6.1,0,0,0,1.25-3.19c0-.07.07-.1.2-.08s.21.05.21.12c-.09.6-.17,1.32-.22,2.16s-.09,1.62-.09,2.34A.48.48,0,0,1,626.6,421.28Zm-1.94-8.14A2.93,2.93,0,0,0,624,411a3.34,3.34,0,0,0-2.32-.62h-5.33v-.66h5.44a3.41,3.41,0,0,0,2.21-.54,2.3,2.3,0,0,0,.62-1.85s.07-.07.21-.07.21,0,.21.07c0,.67,0,1.19,0,1.56s0,.76,0,1.18,0,1,0,1.5,0,1,0,1.61c0,.05-.07.07-.2.07S624.66,413.19,624.66,413.14Z" transform="translate(-458 -315.87)"/><path class="cls-1" d="M646.85,399.64s.07.07.07.21,0,.21-.07.21a5.41,5.41,0,0,0-1.72.2,1.2,1.2,0,0,0-.76.73,4.85,4.85,0,0,0-.19,1.52v19.94a8.72,8.72,0,0,1-1.47,5.23,5.12,5.12,0,0,1-4.45,2,3.44,3.44,0,0,1-1.8-.38,1.09,1.09,0,0,1-.62-.93.93.93,0,0,1,.28-.74,1,1,0,0,1,.72-.26,1.39,1.39,0,0,1,.89.24,2.5,2.5,0,0,1,.5.57,2.8,2.8,0,0,0,.5.59,1.27,1.27,0,0,0,.85.26,2.2,2.2,0,0,0,2-1.47,11.87,11.87,0,0,0,.71-4.83V402.44a3.28,3.28,0,0,0-.26-1.5,1.39,1.39,0,0,0-1-.69,9.76,9.76,0,0,0-2.27-.19s-.07-.07-.07-.21,0-.21.07-.21c.67,0,1.38,0,2.11.05s1.52.05,2.32.05,1.41,0,2-.05S646.36,399.64,646.85,399.64Z" transform="translate(-458 -315.87)"/><path class="cls-1" d="M664.16,421.28h-14.3c-.05,0-.07-.07-.07-.21s0-.21.07-.21a8.64,8.64,0,0,0,2-.17,1.26,1.26,0,0,0,.89-.69,4.06,4.06,0,0,0,.22-1.53v-16a3.85,3.85,0,0,0-.22-1.5,1.26,1.26,0,0,0-.89-.69,7.44,7.44,0,0,0-2-.19c-.05,0-.07-.07-.07-.21s0-.21.07-.21h13.71a.27.27,0,0,1,.31.31l.07,4.19c0,.07-.06.11-.19.11s-.19,0-.19-.11a4,4,0,0,0-.94-2.82,3.16,3.16,0,0,0-2.45-1h-2.39a8.14,8.14,0,0,0-1.92.17,1.24,1.24,0,0,0-.87.68,3.82,3.82,0,0,0-.22,1.5v15.68a3.63,3.63,0,0,0,.22,1.46,1.27,1.27,0,0,0,.87.66,8.14,8.14,0,0,0,1.92.17H661a3,3,0,0,0,2.39-1.21,6,6,0,0,0,1.25-3.19c0-.07.07-.1.21-.08s.2.05.2.12c-.09.6-.16,1.32-.22,2.16s-.09,1.62-.09,2.34C664.71,421.1,664.53,421.28,664.16,421.28Zm-1.94-8.14a2.93,2.93,0,0,0-.66-2.18,3.34,3.34,0,0,0-2.32-.62h-5.33v-.66h5.44a3.41,3.41,0,0,0,2.21-.54,2.3,2.3,0,0,0,.62-1.85s.07-.07.21-.07.21,0,.21.07c0,.67,0,1.19,0,1.56s0,.76,0,1.18,0,1,0,1.5,0,1,0,1.61c0,.05-.06.07-.2.07S662.22,413.19,662.22,413.14Z" transform="translate(-458 -315.87)"/><path class="cls-1" d="M683.58,410,679,421.24c0,.09-.14.14-.36.14s-.35-.05-.4-.14l-8.55-18.73a5.87,5.87,0,0,0-.81-1.43,2.73,2.73,0,0,0-.95-.78,3,3,0,0,0-1.25-.24c-.07,0-.1-.07-.1-.21s0-.21.1-.21l1,0c.33,0,.67.05,1,.06h2.48q.69,0,1.26-.06l1.09,0c.07,0,.1.07.1.21s0,.21-.1.21a3.17,3.17,0,0,0-1.89.43c-.38.29-.38.85,0,1.68l8,17.17-1.18,1.49,4.67-11.5Zm15.72-10.39c.07,0,.1.07.1.21s0,.21-.1.21a3.19,3.19,0,0,0-3.33,2.38l-7.61,18.8c0,.09-.15.14-.37.14s-.35-.05-.39-.14L679,402.51a5.14,5.14,0,0,0-1.24-1.9,2.66,2.66,0,0,0-1.77-.55c-.07,0-.1-.07-.1-.21s0-.21.1-.21l1,0c.33,0,.67.05,1,.06h1c.61,0,1.11,0,1.53-.05s.79-.05,1.14-.05c.07,0,.1.07.1.21s0,.21-.1.21c-.74,0-1.15.11-1.23.34a3.58,3.58,0,0,0,.54,1.77l8,17.17-1.18,1.49,7.55-18.59c.32-.81.31-1.38,0-1.7a4.14,4.14,0,0,0-2.48-.48c-.07,0-.1-.07-.1-.21s0-.21.1-.21c.53,0,1,0,1.54.05s1.14.05,1.93.05,1.2,0,1.61-.05S698.72,399.64,699.3,399.64Zm-16.07,9.69,2.88-7.09c.32-.81.38-1.38.19-1.7s-.71-.48-1.54-.48c0,0-.07-.07-.07-.21s0-.21.07-.21c.25,0,.49,0,.71,0s.45.05.71.06H687c.65,0,1.18,0,1.59-.05s.91-.05,1.49-.05c0,0,.07.07.07.21s0,.21-.07.21a3.92,3.92,0,0,0-1.9.45,3.54,3.54,0,0,0-1.42,1.93L683.72,410Z" transform="translate(-458 -315.87)"/><path class="cls-1" d="M715,421.28H700.72c-.05,0-.07-.07-.07-.21s0-.21.07-.21a8.7,8.7,0,0,0,2-.17,1.25,1.25,0,0,0,.88-.69,4,4,0,0,0,.23-1.53v-16a3.82,3.82,0,0,0-.23-1.5,1.25,1.25,0,0,0-.88-.69,7.49,7.49,0,0,0-2-.19c-.05,0-.07-.07-.07-.21s0-.21.07-.21h13.7a.28.28,0,0,1,.32.31l.07,4.19c0,.07-.07.11-.19.11s-.2,0-.2-.11a4,4,0,0,0-.93-2.82,3.17,3.17,0,0,0-2.46-1h-2.39a8.26,8.26,0,0,0-1.92.17,1.22,1.22,0,0,0-.86.68,3.79,3.79,0,0,0-.23,1.5v15.68a3.6,3.6,0,0,0,.23,1.46,1.25,1.25,0,0,0,.86.66,8.26,8.26,0,0,0,1.92.17h3.19a3,3,0,0,0,2.39-1.21,6,6,0,0,0,1.24-3.19c0-.07.07-.1.21-.08s.21.05.21.12c-.09.6-.17,1.32-.23,2.16s-.08,1.62-.08,2.34C715.57,421.1,715.38,421.28,715,421.28Zm-1.94-8.14a2.93,2.93,0,0,0-.65-2.18,3.34,3.34,0,0,0-2.32-.62h-5.33v-.66h5.43a3.46,3.46,0,0,0,2.22-.54,2.34,2.34,0,0,0,.62-1.85s.07-.07.21-.07.21,0,.21.07c0,.67,0,1.19,0,1.56s0,.76,0,1.18,0,1,0,1.5,0,1,0,1.61c0,.05-.07.07-.21.07S713.07,413.19,713.07,413.14Z" transform="translate(-458 -315.87)"/><path class="cls-1" d="M723.81,402.48v15.85a3.63,3.63,0,0,0,.22,1.46,1.27,1.27,0,0,0,.87.66,7.93,7.93,0,0,0,1.88.17h4.43a3.38,3.38,0,0,0,2.81-1.21,6.45,6.45,0,0,0,1.24-3.19c0-.07.07-.1.2-.08s.19.05.19.12q-.1.9-.21,2.16c-.07.84-.11,1.62-.11,2.34a.46.46,0,0,1-.52.52H718.89s-.07-.07-.07-.21,0-.21.07-.21a8.64,8.64,0,0,0,2-.17,1.26,1.26,0,0,0,.89-.69,4.06,4.06,0,0,0,.22-1.53v-16a3.85,3.85,0,0,0-.22-1.5,1.26,1.26,0,0,0-.89-.69,7.44,7.44,0,0,0-2-.19s-.07-.07-.07-.21,0-.21.07-.21c.55,0,1.17,0,1.85.05s1.39.05,2.13.05,1.52,0,2.2-.05,1.29-.05,1.82-.05c0,0,.07.07.07.21s0,.21-.07.21a7.53,7.53,0,0,0-2,.19,1.24,1.24,0,0,0-.88.71A4,4,0,0,0,723.81,402.48Z" transform="translate(-458 -315.87)"/><path class="cls-1" d="M742.15,402.48v15.85a3.6,3.6,0,0,0,.23,1.46,1.27,1.27,0,0,0,.87.66,7.93,7.93,0,0,0,1.88.17h4.43a3.38,3.38,0,0,0,2.81-1.21,6.45,6.45,0,0,0,1.24-3.19c0-.07.07-.1.19-.08s.19.05.19.12c-.07.6-.13,1.32-.2,2.16s-.11,1.62-.11,2.34a.46.46,0,0,1-.52.52H737.24s-.07-.07-.07-.21,0-.21.07-.21a8.64,8.64,0,0,0,2-.17,1.25,1.25,0,0,0,.88-.69,4,4,0,0,0,.23-1.53v-16a3.82,3.82,0,0,0-.23-1.5,1.25,1.25,0,0,0-.88-.69,7.44,7.44,0,0,0-2-.19s-.07-.07-.07-.21,0-.21.07-.21c.55,0,1.17,0,1.85.05s1.39.05,2.13.05,1.52,0,2.2-.05,1.28-.05,1.82-.05q.06,0,.06.21t-.06.21a7.53,7.53,0,0,0-2,.19,1.24,1.24,0,0,0-.88.71A3.94,3.94,0,0,0,742.15,402.48Z" transform="translate(-458 -315.87)"/><path class="cls-1" d="M770.16,421.28h-14.3s-.07-.07-.07-.21,0-.21.07-.21a8.74,8.74,0,0,0,2-.17,1.27,1.27,0,0,0,.88-.69,4.06,4.06,0,0,0,.22-1.53v-16a3.85,3.85,0,0,0-.22-1.5,1.27,1.27,0,0,0-.88-.69,7.53,7.53,0,0,0-2-.19s-.07-.07-.07-.21,0-.21.07-.21h13.71a.27.27,0,0,1,.31.31l.07,4.19c0,.07-.06.11-.19.11s-.19,0-.19-.11a4,4,0,0,0-.93-2.82,3.18,3.18,0,0,0-2.46-1h-2.39a8.26,8.26,0,0,0-1.92.17,1.24,1.24,0,0,0-.87.68,3.82,3.82,0,0,0-.22,1.5v15.68a3.63,3.63,0,0,0,.22,1.46,1.27,1.27,0,0,0,.87.66,8.26,8.26,0,0,0,1.92.17H767a3,3,0,0,0,2.38-1.21,6,6,0,0,0,1.25-3.19c0-.07.07-.1.21-.08s.21.05.21.12c-.1.6-.17,1.32-.23,2.16s-.09,1.62-.09,2.34C770.71,421.1,770.53,421.28,770.16,421.28Zm-1.94-8.14a2.93,2.93,0,0,0-.66-2.18,3.31,3.31,0,0,0-2.31-.62h-5.34v-.66h5.44a3.41,3.41,0,0,0,2.21-.54,2.31,2.31,0,0,0,.63-1.85s.07-.07.21-.07.2,0,.2.07c0,.67,0,1.19,0,1.56s0,.76,0,1.18,0,1,0,1.5,0,1,0,1.61c0,.05-.07.07-.21.07S768.22,413.19,768.22,413.14Z" transform="translate(-458 -315.87)"/><path class="cls-1" d="M783.14,399.54a5.79,5.79,0,0,1,4.07,1.28,4.26,4.26,0,0,1,1.4,3.32,5.57,5.57,0,0,1-1.07,3.32,7.47,7.47,0,0,1-2.86,2.36,8.78,8.78,0,0,1-3.93.86l-.72,0-.76-.07v7.89a4.34,4.34,0,0,0,.2,1.53,1.22,1.22,0,0,0,.89.69,8.9,8.9,0,0,0,2,.17c.07,0,.1.07.1.21s0,.21-.1.21c-.56,0-1.16,0-1.82,0s-1.39,0-2.2,0-1.45,0-2.15,0-1.31,0-1.86,0c-.05,0-.07-.07-.07-.21s0-.21.07-.21a9,9,0,0,0,2-.17,1.3,1.3,0,0,0,.91-.69,3.79,3.79,0,0,0,.25-1.53v-16a3.82,3.82,0,0,0-.23-1.5,1.25,1.25,0,0,0-.88-.69,7.53,7.53,0,0,0-2-.19c-.06,0-.1-.07-.1-.21s0-.21.1-.21c.54,0,1.14,0,1.82.05s1.39.05,2.13.05,1.55,0,2.49-.1S782.54,399.54,783.14,399.54Zm3.53,5.54a6.28,6.28,0,0,0-.6-3,3.6,3.6,0,0,0-1.73-1.61,6.58,6.58,0,0,0-2.72-.5,2.86,2.86,0,0,0-1.8.45c-.37.3-.55,1-.55,2.07v7.27l1.05.07c.38,0,.72,0,1,0,2,0,3.37-.42,4.16-1.25A5,5,0,0,0,786.67,405.08Zm5.51,16.2c-.39,0-1-.45-1.94-1.35a38,38,0,0,1-3.25-3.86c-1.27-1.68-2.69-3.65-4.26-5.94l1.66-.52c2,2.79,3.67,5,5.05,6.66a19.12,19.12,0,0,0,3.67,3.54,5.61,5.61,0,0,0,3.08,1.05c.07,0,.11.07.11.21s0,.21-.11.21h-4Z" transform="translate(-458 -315.87)"/><path class="cls-1" d="M800,403.83a4.16,4.16,0,0,0,.71,2.47,6.79,6.79,0,0,0,1.83,1.79c.75.51,1.54,1,2.37,1.49a27.6,27.6,0,0,1,2.46,1.54,7.54,7.54,0,0,1,2,1.94,4.75,4.75,0,0,1,.78,2.78,5.71,5.71,0,0,1-.78,2.93A5.53,5.53,0,0,1,807,420.9a8.56,8.56,0,0,1-3.91.79,10.84,10.84,0,0,1-1.51-.1,9,9,0,0,1-1.52-.36,14,14,0,0,1-1.68-.71.45.45,0,0,1-.22-.26,1.83,1.83,0,0,1-.09-.4l-.52-4.5c0-.12,0-.18.16-.19s.2,0,.22.12a9,9,0,0,0,.55,2.08,7.46,7.46,0,0,0,1.13,1.9,5.28,5.28,0,0,0,4.24,1.94,5.54,5.54,0,0,0,2.08-.4,3.66,3.66,0,0,0,1.64-1.3,4.15,4.15,0,0,0,.64-2.46,5.06,5.06,0,0,0-.74-2.82,7.57,7.57,0,0,0-1.89-1.94c-.76-.54-1.57-1.05-2.42-1.54s-1.6-1-2.36-1.52a6.78,6.78,0,0,1-1.85-1.89,5.49,5.49,0,0,1,.19-5.71,5.4,5.4,0,0,1,2.34-1.78,7.85,7.85,0,0,1,3-.59,9.77,9.77,0,0,1,1.89.19,10.74,10.74,0,0,1,2.06.64,1,1,0,0,1,.4.26.52.52,0,0,1,.12.33l.31,3.67c0,.09-.06.14-.19.14s-.2-.05-.22-.14a6.43,6.43,0,0,0-.37-1.58,4.91,4.91,0,0,0-.86-1.5,4.47,4.47,0,0,0-1.46-1.13,4.79,4.79,0,0,0-2.13-.43,4.08,4.08,0,0,0-2.37.62,3.51,3.51,0,0,0-1.26,1.56A5,5,0,0,0,800,403.83Z" transform="translate(-458 -315.87)"/><line class="cls-1" x1="356.61" y1="94.73" x2="450.45" y2="94.73"/><rect class="cls-1" x="356.61" y="94.23" width="80.67" height="1"/><polygon class="cls-1" points="436.29 94.29 442.68 90.43 450.45 90.43 446.15 94.73 450.45 99.03 442.68 99.03 436.29 95.17 436.29 94.29"/><line class="cls-2" x1="93.84" y1="95.58" y2="95.58"/><rect class="cls-2" x="13.18" y="95.08" width="80.67" height="1"/><polygon class="cls-2" points="14.16 96.03 7.77 99.88 0 99.88 4.3 95.58 0 91.28 7.77 91.28 14.16 95.14 14.16 96.03"/></svg>